<svg width="100" height="100" viewBox="0 0 100 100" fill="none" xmlns="http://www.w3.org/2000/svg">
<path d="M100 50C100 77.6142 77.6142 100 50 100C22.3858 100 0 77.6142 0 50C0 22.3858 22.3858 0 50 0C77.6142 0 100 22.3858 100 50Z" fill="#AC3737"/>
<path d="M60.4967 78.3011C57.3333 75.9942 54.9406 72.7519 52.9033 69.7777L51.3073 67.4286C50.2911 65.9436 50.4588 63.9292 51.7491 62.6392L55.1461 59.2432L54.7865 58.4833C53.9107 56.7081 52.3989 54.1495 50.1218 51.873C48.3702 50.1218 46.4517 48.8233 44.8513 47.9187L43.9332 47.4227L43.1147 47.0184C42.9879 46.9585 42.8662 46.9024 42.7501 46.8498L39.3546 50.2442C38.0634 51.5354 36.0398 51.7057 34.5512 50.6744L32.0116 48.9143C29.1276 46.8857 26.1156 44.5736 23.7731 41.5743C22.9176 40.4791 22.7906 39.0467 23.3007 37.8564C25.3964 32.9677 30.6997 28.8041 36.2164 29.0071L36.969 29.0489L37.5524 29.0993L38.198 29.1716L38.9032 29.2694L39.6652 29.3961L40.4815 29.5553L41.3494 29.7504L42.2662 29.9849L43.2292 30.2623L44.2358 30.586C48.8598 32.1522 54.7271 35.2316 60.747 41.2503C66.767 47.2689 69.8472 53.1348 71.4137 57.7576L71.7375 58.764L72.0149 59.7268L72.2495 60.6434L72.4446 61.511C72.5035 61.7918 72.5564 62.064 72.6039 62.3271L72.7307 63.089L72.8285 63.794L72.9008 64.4394L72.9512 65.0227L72.993 65.7751C73.1953 71.2721 68.9834 76.6132 64.1159 78.6988C62.9737 79.1882 61.5904 79.0987 60.4967 78.3011ZM62.8223 73.7735C65.5055 72.3701 68.1056 69.1652 67.9876 65.9593L67.9357 65.137L67.8841 64.6255L67.8103 64.0508L67.7106 63.4157L67.5813 62.7229L67.4186 61.9751L67.2187 61.1752L66.9778 60.3258L66.6923 59.4298C66.5893 59.1237 66.4782 58.8102 66.3584 58.4899L65.9722 57.5089L65.5301 56.4894C63.9591 53.0305 61.3928 48.9778 57.2052 44.7912C53.0177 40.6046 48.964 38.0389 45.5042 36.4682L44.4846 36.0262L43.5033 35.6402C43.1829 35.5204 42.8694 35.4093 42.5632 35.3063L41.667 35.0208L40.8174 34.7801L40.0173 34.5802L39.2694 34.4175L38.5764 34.2882L37.9411 34.1885L37.3663 34.1148L36.8547 34.0631L36.0323 34.0113C32.8655 33.8948 29.6353 36.479 28.2391 39.1273C30.0217 41.2185 32.2353 42.9344 34.6777 44.6628L36.5492 45.9675L37.027 45.4692L38.0419 44.3597L38.5812 43.7925C40.0494 42.2982 41.7609 41.0279 43.8142 41.8582L44.3811 42.0956L45.072 42.4054C45.1966 42.4632 45.3257 42.5241 45.4589 42.5882L46.3054 43.0116L47.2354 43.5139C49.1681 44.5992 51.5048 46.1739 53.6635 48.3321C55.8221 50.4902 57.3972 52.8264 58.4828 54.7587L58.9853 55.6885L59.4087 56.5347L59.9015 57.6122L60.139 58.1791C60.9182 60.1052 59.8472 61.7317 58.4766 63.1385L57.916 63.6897L56.5194 64.9726L56.0206 65.4507L57.2041 67.1843C58.9639 69.7359 60.6874 72.0425 62.8223 73.7735Z" fill="white"/>
</svg>
