<svg width="18" height="18" viewBox="0 0 35 32" fill="none" xmlns="http://www.w3.org/2000/svg">
<path d="M8.71452 0.769114C10.8724 2.18958 12.5045 4.18593 13.8943 6.01721L14.9829 7.46366C15.6762 8.37798 15.5617 9.6183 14.6816 10.4126L12.3644 12.5036L12.6097 12.9715C13.2071 14.0645 14.2384 15.64 15.7917 17.0417C16.9865 18.1199 18.2952 18.9194 19.3868 19.4764L20.0131 19.7818L20.5714 20.0307C20.6579 20.0676 20.741 20.1022 20.8201 20.1346L23.1363 18.0445C24.0171 17.2495 25.3975 17.1447 26.4129 17.7797L28.1452 18.8634C30.1125 20.1124 32.1671 21.5361 33.765 23.3829C34.3486 24.0572 34.4352 24.9392 34.0872 25.6721C32.6577 28.6822 29.0401 31.2458 25.277 31.1208L24.7636 31.095L24.3657 31.0641L23.9253 31.0195L23.4443 30.9593L22.9244 30.8813L22.3676 30.7833L21.7756 30.6631L21.1502 30.5187L20.4933 30.348L19.8067 30.1486C16.6525 29.1843 12.6502 27.2882 8.54381 23.5823C4.43735 19.8765 2.33624 16.2647 1.26766 13.4183L1.04679 12.7986L0.85755 12.2058L0.697554 11.6415L0.564434 11.1072C0.524276 10.9344 0.488202 10.7668 0.455816 10.6048L0.369328 10.1356L0.302598 9.70157L0.253253 9.30415L0.218922 8.94503L0.190384 8.48173C0.0523676 5.09707 2.92544 1.8084 6.24576 0.524236C7.02488 0.222901 7.96853 0.278047 8.71452 0.769114ZM7.12816 3.55693C5.29784 4.42101 3.52425 6.39436 3.60474 8.36834L3.64014 8.87465L3.67536 9.18958L3.72569 9.54342L3.79368 9.93449L3.88189 10.3611L3.9929 10.8215L4.12926 11.314L4.29354 11.837L4.4883 12.3887C4.55858 12.5772 4.63437 12.7702 4.71609 12.9674L4.9795 13.5715L5.28107 14.1992C6.35276 16.329 8.10328 18.8243 10.9598 21.4021C13.8163 23.9799 16.5814 25.5597 18.9415 26.5268L19.637 26.7989L20.3064 27.0367C20.5249 27.1104 20.7388 27.1788 20.9476 27.2422L21.559 27.418L22.1385 27.5662L22.6843 27.6893L23.1945 27.7895L23.6672 27.8691L24.1005 27.9305L24.4926 27.9759L24.8416 28.0077L25.4026 28.0396C27.5628 28.1113 29.7662 26.5201 30.7186 24.8895C29.5026 23.6019 27.9926 22.5454 26.3266 21.4812L25.05 20.6778L24.7241 20.9846L24.0318 21.6678L23.6639 22.017C22.6624 22.9371 21.4949 23.7192 20.0943 23.208L19.7075 23.0619L19.2363 22.8711C19.1513 22.8355 19.0632 22.798 18.9724 22.7585L18.395 22.4979L17.7606 22.1886C16.4422 21.5203 14.8482 20.5507 13.3757 19.2219C11.9032 17.8931 10.8288 16.4546 10.0883 15.2648L9.74555 14.6924L9.4567 14.1713L9.12054 13.5078L8.95858 13.1588C8.42706 11.9729 9.15759 10.9714 10.0926 10.1052L10.4749 9.76579L11.4276 8.97589L11.7679 8.6815L10.9605 7.61403C9.7601 6.04298 8.58448 4.62275 7.12816 3.55693ZM22.6108 6.31093L22.809 6.33194C24.0525 6.5298 25.1947 7.07786 26.0719 7.89753C26.949 8.71721 27.516 9.76643 27.6917 10.8948C27.8231 11.738 27.1721 12.5175 26.2378 12.636C25.3702 12.7461 24.5634 12.2474 24.3475 11.5005L24.3084 11.324C24.2331 10.8404 23.99 10.3907 23.6141 10.0394C23.3008 9.74665 22.9087 9.53475 22.4782 9.42318L22.2157 9.36842C21.2867 9.22058 20.6662 8.42098 20.8301 7.58248C20.9822 6.80386 21.7571 6.26549 22.6108 6.31093ZM22.625 1.62499C23.971 1.62499 25.304 1.86424 26.5475 2.3291C27.7912 2.79395 28.9211 3.47531 29.8729 4.33425C30.8247 5.19319 31.5797 6.21291 32.0948 7.33517C32.6099 8.45742 32.875 9.66026 32.875 10.875C32.875 11.7264 32.1102 12.4167 31.1667 12.4167C30.2906 12.4167 29.5685 11.8215 29.4698 11.0548L29.4583 10.875C29.4583 10.0652 29.2817 9.26328 28.9381 8.51511C28.5948 7.76692 28.0915 7.08713 27.4569 6.51449C26.8224 5.94187 26.0692 5.48763 25.2399 5.17773C24.5491 4.91947 23.8169 4.76566 23.0727 4.72157L22.625 4.70832C21.6815 4.70832 20.9167 4.01808 20.9167 3.16665C20.9167 2.31522 21.6815 1.62499 22.625 1.62499Z" fill="white"/>
</svg>
