<svg width="100" height="100" viewBox="0 0 100 100" fill="none" xmlns="http://www.w3.org/2000/svg">
<g id="Frame 5088">
<g id="Group 5046">
<circle id="Ellipse 33" cx="50" cy="50" r="50" fill="#24AB57"/>
<g id="&#240;&#159;&#166;&#134; icon &#34;phone call line contact&#34;">
<path id="Vector" d="M37.5033 25.6989C40.6667 28.0058 43.0594 31.2481 45.0967 34.2223L46.6927 36.5714C47.7089 38.0564 47.5412 40.0708 46.2509 41.3608L42.8539 44.7568L43.2135 45.5167C44.0893 47.2919 45.6011 49.8505 47.8782 52.127C49.6298 53.8782 51.5483 55.1767 53.1487 56.0813L54.0668 56.5773L54.8853 56.9816C55.0121 57.0415 55.1338 57.0976 55.2499 57.1502L58.6454 53.7558C59.9366 52.4646 61.9602 52.2943 63.4488 53.3256L65.9884 55.0857C68.8724 57.1143 71.8844 59.4264 74.2269 62.4257C75.0824 63.5209 75.2094 64.9533 74.6993 66.1436C72.6036 71.0323 67.3003 75.1959 61.7836 74.9929L61.031 74.9511L60.4476 74.9007L59.802 74.8284L59.0968 74.7306L58.3348 74.6039L57.5185 74.4447L56.6506 74.2496L55.7338 74.0151L54.7708 73.7377L53.7642 73.414C49.1402 71.8478 43.2729 68.7684 37.253 62.7497C31.233 56.7311 28.1528 50.8652 26.5863 46.2424L26.2625 45.236L25.9851 44.2732L25.7505 43.3566L25.5554 42.489C25.4965 42.2082 25.4436 41.936 25.3961 41.6729L25.2693 40.911L25.1715 40.206L25.0992 39.5606L25.0488 38.9773L25.007 38.2249C24.8047 32.7279 29.0166 27.3868 33.8841 25.3012C35.0263 24.8118 36.4096 24.9013 37.5033 25.6989ZM35.1777 30.2265C32.4945 31.6299 29.8944 34.8348 30.0124 38.0407L30.0643 38.863L30.1159 39.3745L30.1897 39.9492L30.2894 40.5843L30.4187 41.2771L30.5814 42.0249L30.7813 42.8248L31.0222 43.6742L31.3077 44.5702C31.4107 44.8763 31.5218 45.1898 31.6416 45.5101L32.0278 46.4911L32.4699 47.5106C34.0409 50.9695 36.6072 55.0222 40.7948 59.2088C44.9823 63.3954 49.036 65.9611 52.4958 67.5318L53.5154 67.9738L54.4967 68.3598C54.8171 68.4796 55.1306 68.5907 55.4368 68.6937L56.333 68.9792L57.1826 69.2199L57.9827 69.4198L58.7306 69.5825L59.4236 69.7118L60.0589 69.8115L60.6337 69.8852L61.1453 69.9369L61.9677 69.9887C65.1345 70.1052 68.3647 67.521 69.7609 64.8727C67.9783 62.7815 65.7647 61.0656 63.3223 59.3372L61.4508 58.0325L60.973 58.5308L59.9581 59.6403L59.4188 60.2075C57.9506 61.7018 56.2391 62.9721 54.1858 62.1418L53.6189 61.9044L52.928 61.5946C52.8034 61.5368 52.6743 61.4759 52.5411 61.4118L51.6946 60.9884L50.7646 60.4861C48.8319 59.4008 46.4952 57.8261 44.3365 55.6679C42.1779 53.5098 40.6028 51.1736 39.5172 49.2413L39.0147 48.3115L38.5913 47.4653L38.0985 46.3878L37.861 45.8209C37.0818 43.8948 38.1528 42.2683 39.5234 40.8615L40.084 40.3103L41.4806 39.0274L41.9794 38.5493L40.7959 36.8157C39.0361 34.2641 37.3126 31.9575 35.1777 30.2265Z" fill="white"/>
</g>
</g>
</g>
</svg>
